<?xml version="1.0" encoding="UTF-8"?>
<svg id="Layer_1" xmlns="http://www.w3.org/2000/svg" viewBox="0 0 16 16">
  <defs>
    <style>
      .cls-1 {
        fill: #1f1f1f;
      }
    </style>
  </defs>
  <path class="cls-1" d="M13.11,11c.98-.98,1.59-2.33,1.59-3.82,0-2.98-2.42-5.4-5.4-5.4S3.94,4.16,3.9,7.1h1c0-.22.02-.44.06-.65h2.16c-.03.22-.04.43-.04.65h1c0-.22.01-.44.04-.65h2.38c.02.1.02.21.02.32s0,.22-.01.33h1c.01-.11.01-.22.01-.33s0-.21-.01-.32h2.13c.04.24.06.48.06.73,0,.8-.21,1.55-.59,2.19v1.63ZM7.27,5.45h-2.02c.54-1.25,1.64-2.2,2.98-2.53-.46.81-.78,1.66-.96,2.53ZM8.29,5.45c.18-.77.49-1.52.93-2.24.45.73.85,1.48,1.08,2.24h-2.01ZM11.34,5.45c-.23-.89-.66-1.75-1.16-2.58,1.44.29,2.61,1.28,3.17,2.58h-2.01Z"/>
  <path class="cls-1" d="M11.3,14.22H1.3v-5.12h10v5.12ZM2.3,13.22h8v-3.12H2.3v3.12Z"/>
  <rect class="cls-1" x="3.71" y="11.16" width="5.18" height="1"/>
</svg>