<?xml version="1.0" encoding="UTF-8"?>
<svg id="Layer_1" xmlns="http://www.w3.org/2000/svg" viewBox="0 0 16 16">
  <defs>
    <style>
      .cls-1 {
        fill: #1f1f1f;
      }

      .cls-2 {
        fill: #d13732;
      }
    </style>
  </defs>
  <g>
    <path class="cls-1" d="M6.65,1.65L1.65,6.65l.11.28c.53-.36,1.12-.61,1.77-.75l2.97-2.97v3.17c.36.12.69.28,1,.49V2l-.85-.35Z"/>
    <path class="cls-1" d="M9.35,1.65l-.85.35v5l.53.5h4.97l.35-.85L9.35,1.65ZM9.5,6.5v-3.29l3.29,3.29h-3.29Z"/>
    <path class="cls-1" d="M14,8.5h-4.85c.21.31.38.64.5,1h3.14l-2.89,2.89c-.13.68-.39,1.32-.76,1.87l.21.09,5-5-.35-.85Z"/>
  </g>
  <g>
    <rect class="cls-1" x="2.72" y="10.87" width="3.99" height="1"/>
    <path class="cls-2" d="M4.68,8.57c1.55,0,2.8,1.26,2.8,2.8s-1.26,2.8-2.8,2.8-2.8-1.26-2.8-2.8,1.26-2.8,2.8-2.8M4.68,7.57c-2.1,0-3.8,1.7-3.8,3.8s1.7,3.8,3.8,3.8,3.8-1.7,3.8-3.8-1.7-3.8-3.8-3.8h0Z"/>
  </g>
</svg>