<?xml version="1.0" encoding="UTF-8"?>
<svg id="Layer_1" xmlns="http://www.w3.org/2000/svg" viewBox="0 0 16 16">
  <defs>
    <style>
      .cls-1 {
        fill: #1e1e1e;
      }
    </style>
  </defs>
  <path class="cls-1" d="M14.14,6.69h-1.51v-1.5c-.24-.24-.36-.36-.6-.6h-4.46l-1-1.14H2.1c-.24.24-.36.36-.6.6v7.89l.6.6h10.11l.35-.28,1.93-5.12-.36-.45ZM2.64,4.59h3.41l.67.75.84.39h3.92v.97h-3.34l-.26.1-.63.63h-3.5l-.34.25-.77,2.24v-5.32ZM8.45,7.77h4.82l-.71,1.62-.89,2.25H3.19l.08-.25,1.09-2.82h3.41"/>
</svg>