<?xml version="1.0" encoding="UTF-8"?>
<svg id="Layer_1" xmlns="http://www.w3.org/2000/svg" viewBox="0 0 16 16">
  <defs>
    <style>
      .cls-1 {
        fill: #f3f3f4;
      }
    </style>
  </defs>
  <path class="cls-1" d="M13.66,6.79h-1.4v-1.39c-.22-.22-.34-.34-.56-.56h-4.12l-.92-1.05H2.56c-.22.22-.34.34-.56.56v7.29l.56.56h9.33l.33-.26,1.78-4.72-.34-.42ZM3.05,4.85h3.15l.62.69.78.36h3.62v.89h-3.09l-.24.09-.58.58h-3.23l-.31.23-.71,2.07v-4.91ZM8.42,7.79h4.45l-.65,1.49-.82,2.07H3.56l.07-.23,1.01-2.6h3.15"/>
</svg>