<?xml version="1.0" encoding="UTF-8"?>
<svg id="Layer_1" xmlns="http://www.w3.org/2000/svg" viewBox="0 0 16 16">
  <defs>
    <style>
      .cls-1 {
        fill: #f3f3f3;
      }
    </style>
  </defs>
  <path class="cls-1" d="M14.13,6.69h-1.51v-1.5c-.24-.24-.37-.37-.61-.61h-4.45l-1.01-1.14H2.11c-.24.24-.37.37-.61.61v5.03l1.14-1.14v-3.36h3.41l.67.75.85.39h3.92v.96h-3.35l-.26.11-.63.62h-.92l1.15,1.15h.29l.68-.79h4.82l-.7,1.61-.89,2.25h-1.91l-.91.91h3.35l.36-.28,1.93-5.12-.37-.45Z"/>
  <g>
    <path class="cls-1" d="M5,8.97l2.03,2.03-2.03,2.03-2.03-2.03,2.03-2.03h0ZM5,8l-3,3,3,3,3-3-3-3h0Z"/>
    <path class="cls-1" d="M5,14.18l-3.18-3.18,3.18-3.18,3.18,3.18-3.18,3.18ZM2.18,11l2.82,2.82,2.82-2.82-2.82-2.82-2.82,2.82ZM5,13.2l-2.2-2.2,2.2-2.2,2.2,2.2-2.2,2.2ZM3.15,11l1.85,1.85,1.85-1.85-1.85-1.85-1.85,1.85Z"/>
  </g>
</svg>