<?xml version="1.0" encoding="UTF-8"?>
<svg id="Layer_1" xmlns="http://www.w3.org/2000/svg" viewBox="0 0 16 16">
  <defs>
    <style>
      .cls-1 {
        fill: #1e1e1e;
      }
    </style>
  </defs>
  <path class="cls-1" d="M13.35,4.32h-4.8l-1.1-1.23H2.65c-.25.26-.4.4-.65.65v4.55l1.22-1.22v-2.74h3.68l.72.81.93.41h4.23v6.14h-2.74l-1.23,1.23h4.55c.25-.26.4-.4.65-.65v-7.29c-.25-.26-.4-.4-.65-.65Z"/>
  <g>
    <path class="cls-1" d="M5,8.97l2.03,2.03-2.03,2.03-2.03-2.03,2.03-2.03h0ZM5,8l-3,3,3,3,3-3-3-3h0Z"/>
    <path class="cls-1" d="M5,14.18l-3.18-3.18,3.18-3.18,3.18,3.18-3.18,3.18ZM2.18,11l2.82,2.82,2.82-2.82-2.82-2.82-2.82,2.82ZM5,13.2l-2.2-2.2,2.2-2.2,2.2,2.2-2.2,2.2ZM3.15,11l1.85,1.85,1.85-1.85-1.85-1.85-1.85,1.85Z"/>
  </g>
</svg>