<?xml version="1.0" encoding="UTF-8"?>
<svg id="Layer_1" xmlns="http://www.w3.org/2000/svg" viewBox="0 0 16 16">
  <defs>
    <style>
      .cls-1 {
        fill: #f3f3f4;
      }

      .cls-2 {
        fill: #d13732;
      }
    </style>
  </defs>
  <g>
    <path class="cls-1" d="M6,2.25v1h5v3h-2.5v1h3.5V2.25h-6Z"/>
    <path class="cls-1" d="M8.57,7.75c.29.3.53.64.74,1h1.69v4h-1.19c-.09.35-.21.69-.38,1h2.57v-6h-3.43Z"/>
    <path class="cls-1" d="M5.93,4.75v1.46c.38.08.73.21,1.07.38v-1.84h-1.07Z"/>
  </g>
  <g>
    <rect class="cls-1" x="2.72" y="10.87" width="3.99" height="1"/>
    <path class="cls-2" d="M4.68,8.57c1.55,0,2.8,1.26,2.8,2.8s-1.26,2.8-2.8,2.8-2.8-1.26-2.8-2.8,1.26-2.8,2.8-2.8M4.68,7.57c-2.1,0-3.8,1.7-3.8,3.8s1.7,3.8,3.8,3.8,3.8-1.7,3.8-3.8-1.7-3.8-3.8-3.8h0Z"/>
  </g>
</svg>