<?xml version="1.0" encoding="UTF-8"?>
<svg id="Layer_1" xmlns="http://www.w3.org/2000/svg" viewBox="0 0 16 16">
  <defs>
    <style>
      .cls-1 {
        fill: #1f1f1f;
      }

      .cls-2 {
        fill: #d13732;
      }
    </style>
  </defs>
  <g>
    <path class="cls-1" d="M6,2.5v1h5v3h-2.5v1h3.5V2.5h-6Z"/>
    <path class="cls-1" d="M8.79,8c.25.3.47.64.65,1h1.56v4h-1.26c-.11.35-.26.69-.44,1h2.7v-6h-3.21Z"/>
    <path class="cls-1" d="M5.93,5v1.21c.38.08.73.21,1.07.38v-1.59h-1.07Z"/>
  </g>
  <g>
    <rect class="cls-1" x="2.72" y="10.87" width="3.99" height="1"/>
    <path class="cls-2" d="M4.68,8.57c1.55,0,2.8,1.26,2.8,2.8s-1.26,2.8-2.8,2.8-2.8-1.26-2.8-2.8,1.26-2.8,2.8-2.8M4.68,7.57c-2.1,0-3.8,1.7-3.8,3.8s1.7,3.8,3.8,3.8,3.8-1.7,3.8-3.8-1.7-3.8-3.8-3.8h0Z"/>
  </g>
</svg>