<?xml version="1.0" encoding="UTF-8"?>
<svg id="Layer_1" xmlns="http://www.w3.org/2000/svg" viewBox="0 0 16 16">
  <defs>
    <style>
      .cls-1 {
        fill: #f3f3f4;
      }
    </style>
  </defs>
  <path class="cls-1" d="M14,13.5H4v-3h10v3ZM5,12.5h8v-1H5v1Z"/>
  <path class="cls-1" d="M11.5,10H1.5v-3h10v3ZM2.5,9h8v-1H2.5v1Z"/>
  <path class="cls-1" d="M15.02,4.63l-2.78-2.87-.33-.13h-4.31l-.45.45v2.92h.91v-2.46h3.03v2.48c0,.23.17.42.41.44.01.01.03.01.05.01h2.69v3.03s.9,0,.9,0v-3.55s-.12-.32-.12-.32ZM12,4.56v-1.73l1.69,1.73h-1.69Z"/>
</svg>