<?xml version="1.0" encoding="UTF-8"?>
<svg id="Layer_1" xmlns="http://www.w3.org/2000/svg" viewBox="0 0 16 16">
  <defs>
    <style>
      .cls-1 {
        fill: #f3f3f4;
      }

      .cls-2 {
        fill: #d13732;
      }
    </style>
  </defs>
  <g>
    <path class="cls-1" d="M9.92,10.5c.06.28.08.57.08.87,0,.04,0,.09-.01.13h3.01v1h-3.13c-.07.35-.18.68-.32,1h4.45v-3h-4.08Z"/>
    <path class="cls-1" d="M7.7,7c.41.27.78.61,1.09,1h1.71v1h-1.06c.16.32.29.65.37,1h1.69v-3h-3.8Z"/>
    <path class="cls-1" d="M4.5,3.5v2.56c.06-.01.12-.01.18-.01.76,0,1.48.16,2.13.45h7.69v-3H4.5ZM13.5,5.5H5.5v-1h8v1Z"/>
  </g>
  <g>
    <rect class="cls-1" x="2.72" y="10.87" width="3.99" height="1"/>
    <path class="cls-2" d="M4.68,8.57c1.55,0,2.8,1.26,2.8,2.8s-1.26,2.8-2.8,2.8-2.8-1.26-2.8-2.8,1.26-2.8,2.8-2.8M4.68,7.57c-2.1,0-3.8,1.7-3.8,3.8s1.7,3.8,3.8,3.8,3.8-1.7,3.8-3.8-1.7-3.8-3.8-3.8h0Z"/>
  </g>
</svg>