<?xml version="1.0" encoding="UTF-8"?>
<svg id="Layer_1" xmlns="http://www.w3.org/2000/svg" viewBox="0 0 16 16">
  <defs>
    <style>
      .cls-1 {
        fill: #1f1f1f;
      }

      .cls-2 {
        fill: #d13732;
      }
    </style>
  </defs>
  <g>
    <path class="cls-1" d="M9.65,7.09v-1.01h-3.3v.61c-.32-.1-.65-.16-1-.18l-1.8-1.04,2.8-1.62v1.01h3.3v-1.01l2.8,1.62-2.8,1.62Z"/>
    <path class="cls-1" d="M9.65,12.15v-1.01h-.22c.01-.09.01-.18.01-.27,0-.33-.04-.65-.11-.95h.32v-1.01l2.8,1.62-2.8,1.62Z"/>
  </g>
  <g>
    <rect class="cls-1" x="2.72" y="10.87" width="3.99" height="1"/>
    <path class="cls-2" d="M4.68,8.57c1.55,0,2.8,1.26,2.8,2.8s-1.26,2.8-2.8,2.8-2.8-1.26-2.8-2.8,1.26-2.8,2.8-2.8M4.68,7.57c-2.1,0-3.8,1.7-3.8,3.8s1.7,3.8,3.8,3.8,3.8-1.7,3.8-3.8-1.7-3.8-3.8-3.8h0Z"/>
  </g>
</svg>