<?xml version="1.0" encoding="UTF-8"?>
<svg id="Layer_1" xmlns="http://www.w3.org/2000/svg" viewBox="0 0 16 16">
  <defs>
    <style>
      .cls-1 {
        fill: #e21e26;
      }

      .cls-2 {
        fill: #f3f3f4;
      }
    </style>
  </defs>
  <g>
    <path class="cls-2" d="M10.04,6.88v-1.25h-4.08v.75c-.4-.12-.8-.2-1.24-.22l-2.22-1.29,3.46-2v1.25h4.08v-1.25l3.46,2-3.46,2Z"/>
    <path class="cls-2" d="M10.04,13.13v-1.25h-.27c.01-.11.01-.22.01-.33,0-.41-.05-.8-.14-1.17h.4v-1.25l3.46,2-3.46,2Z"/>
  </g>
  <g>
    <rect class="cls-2" x="2.72" y="10.87" width="3.99" height="1"/>
    <path class="cls-1" d="M4.68,8.57c1.55,0,2.8,1.26,2.8,2.8s-1.26,2.8-2.8,2.8-2.8-1.26-2.8-2.8,1.26-2.8,2.8-2.8M4.68,7.57c-2.1,0-3.8,1.7-3.8,3.8s1.7,3.8,3.8,3.8,3.8-1.7,3.8-3.8-1.7-3.8-3.8-3.8h0Z"/>
  </g>
</svg>