<?xml version="1.0" encoding="UTF-8"?>
<svg id="Layer_1" xmlns="http://www.w3.org/2000/svg" viewBox="0 0 16 16">
  <defs>
    <style>
      .cls-1 {
        fill: #6e6e6f;
      }
    </style>
  </defs>
  <path class="cls-1" d="M12.84,5.5l-3.47-3.57-.41-.18H3.56l-.56.56v3.31c.28-.05.56-.06.85-.06.1,0,.2,0,.29.01v-2.69h3.8v3.1c0,.32.25.57.56.57h3.36v6.55h-1.44c-.04.39-.12.77-.25,1.14h2.25l.56-.56v-7.79s-.15-.4-.15-.4ZM9.06,5.43v-2.17l2.12,2.17h-2.12Z"/>
  <g>
    <rect class="cls-1" x="2.72" y="10.87" width="3.99" height="1"/>
    <path class="cls-1" d="M4.68,8.57c1.55,0,2.8,1.26,2.8,2.8s-1.26,2.8-2.8,2.8-2.8-1.26-2.8-2.8,1.26-2.8,2.8-2.8M4.68,7.57c-2.1,0-3.8,1.7-3.8,3.8s1.7,3.8,3.8,3.8,3.8-1.7,3.8-3.8-1.7-3.8-3.8-3.8h0Z"/>
  </g>
</svg>