<?xml version="1.0" encoding="UTF-8"?>
<svg id="Layer_1" xmlns="http://www.w3.org/2000/svg" viewBox="0 0 16 16">
  <defs>
    <style>
      .cls-1 {
        fill: #f3f3f4;
      }

      .cls-2 {
        fill: #d13732;
      }
    </style>
  </defs>
  <path class="cls-1" d="M3.01,3.43v2.98c.32-.14.65-.24,1-.31v-1.66h7.99v1.66h-5.99c.79.16,1.51.51,2.12,1h3.87v4.46h-2.04c-.03.35-.1.68-.21,1h3.24s.01-9.11.01-9.11l-9.99-.02Z"/>
  <g>
    <rect class="cls-1" x="2.72" y="10.87" width="3.99" height="1"/>
    <path class="cls-2" d="M4.68,8.57c1.55,0,2.8,1.26,2.8,2.8s-1.26,2.8-2.8,2.8-2.8-1.26-2.8-2.8,1.26-2.8,2.8-2.8M4.68,7.57c-2.1,0-3.8,1.7-3.8,3.8s1.7,3.8,3.8,3.8,3.8-1.7,3.8-3.8-1.7-3.8-3.8-3.8h0Z"/>
  </g>
</svg>