<?xml version="1.0" encoding="UTF-8"?>
<svg id="Layer_1" xmlns="http://www.w3.org/2000/svg" viewBox="0 0 16 16">
  <defs>
    <style>
      .cls-1 {
        fill: #e21e26;
      }

      .cls-2 {
        fill: #f3f3f4;
      }
    </style>
  </defs>
  <g>
    <path class="cls-2" d="M4.38,1.66L0,6.04l1.28,1.28c.26-.23.54-.42.84-.58l-.7-.7,2.96-2.96,2.96,2.96-.49.49c.32.15.62.32.9.53l1.02-1.02L4.38,1.66Z"/>
    <path class="cls-2" d="M11.62,5.57l-2.67,2.67c.21.28.39.58.53.9l2.14-2.14,2.96,2.96-2.96,2.96-1.65-1.65s.01.07.01.1c0,.41-.05.81-.14,1.19l1.78,1.78,4.38-4.38-4.38-4.39Z"/>
  </g>
  <g>
    <rect class="cls-2" x="2.72" y="10.87" width="3.99" height="1"/>
    <path class="cls-1" d="M4.68,8.57c1.55,0,2.8,1.26,2.8,2.8s-1.26,2.8-2.8,2.8-2.8-1.26-2.8-2.8,1.26-2.8,2.8-2.8M4.68,7.57c-2.1,0-3.8,1.7-3.8,3.8s1.7,3.8,3.8,3.8,3.8-1.7,3.8-3.8-1.7-3.8-3.8-3.8h0Z"/>
  </g>
</svg>