<?xml version="1.0" encoding="UTF-8"?>
<svg id="Layer_1" xmlns="http://www.w3.org/2000/svg" viewBox="0 0 16 16">
  <defs>
    <style>
      .cls-1 {
        fill: #f3f3f4;
      }
    </style>
  </defs>
  <g>
    <path class="cls-1" d="M4.83,4.7l2.59,2.59-2.59,2.59-2.59-2.59,2.59-2.59M4.83,3.45L1,7.29l3.83,3.83,3.83-3.83-3.83-3.83h0Z"/>
    <path class="cls-1" d="M11.17,8.12l2.59,2.59-2.59,2.59-2.59-2.59,2.59-2.59M11.17,6.88l-3.83,3.83,3.83,3.83,3.83-3.83-3.83-3.83h0Z"/>
  </g>
  <path class="cls-1" d="M14.47,4.06l-2.78-2.87-.33-.13h-4.31l-.45.45v1.71l.91.9V1.96h3.03v2.49c0,.25.2.45.46.45h2.69v2.17l.9.91v-3.61s-.12-.31-.12-.31ZM11.45,3.99v-1.73l1.69,1.73h-1.69Z"/>
</svg>