<?xml version="1.0" encoding="UTF-8"?>
<svg id="Layer_1" xmlns="http://www.w3.org/2000/svg" viewBox="0 0 16 16">
  <defs>
    <style>
      .cls-1 {
        fill: #f3f3f4;
      }
    </style>
  </defs>
  <path class="cls-1" d="M5.54,12.05c.07.35.16.68.29,1h-2.97V3.05h-.86v-1h1.86v10h1.68Z"/>
  <path class="cls-1" d="M6.57,2.97v4.77c-.48.63-.83,1.36-1,2.16V2.97h1Z"/>
  <polygon class="cls-1" points="14.45 4.05 12.38 6.12 11.68 5.41 12.53 4.55 8.91 4.55 8.91 3.55 12.53 3.55 11.68 2.7 12.39 2 14.45 4.05"/>
  <g>
    <polygon class="cls-1" points="11.47 12.31 10.51 11.35 10.51 9.55 11.51 9.55 11.51 10.94 12.18 11.61 11.47 12.31"/>
    <path class="cls-1" d="M10.95,14.55c-1.93,0-3.5-1.57-3.5-3.5s1.57-3.5,3.5-3.5,3.5,1.57,3.5,3.5-1.57,3.5-3.5,3.5ZM10.95,8.55c-1.38,0-2.5,1.12-2.5,2.5s1.12,2.5,2.5,2.5,2.5-1.12,2.5-2.5-1.12-2.5-2.5-2.5Z"/>
  </g>
</svg>