<?xml version="1.0" encoding="UTF-8"?>
<svg id="Layer_1" xmlns="http://www.w3.org/2000/svg" viewBox="0 0 16 16">
  <defs>
    <style>
      .cls-1 {
        fill: #f3f3f4;
      }
    </style>
  </defs>
  <path class="cls-1" d="M6.76,12.5l-.42-.18c-.23-.13-.37-.37-.37-.64V3.95l.69-.45.42.19,6.56,3.86.05.45c0,.26-.14.5-.36.63l-6.57,3.87ZM6.43,11.23s0,0,0,0h0ZM7.23,5.25v5.51l4.68-2.76-4.68-2.76Z"/>
  <path class="cls-1" d="M4,12.41c-.41,0-.75-.34-.75-.75v-7.44c0-.41.34-.75.75-.75s.75.34.75.75v7.44c0,.41-.34.75-.75.75Z"/>
</svg>