<?xml version="1.0" encoding="UTF-8"?>
<svg id="Layer_1" xmlns="http://www.w3.org/2000/svg" viewBox="0 0 16 16">
  <defs>
    <style>
      .cls-1 {
        fill: #1e1e1e;
      }
    </style>
  </defs>
  <path class="cls-1" d="M6.01,13.24l-.49-.21c-.27-.15-.43-.43-.43-.74V3.32l.8-.52.48.22,7.62,4.49.06.52c0,.3-.16.58-.42.73l-7.63,4.49ZM5.64,11.77s0,0,0,0h0ZM6.56,4.82v6.4l5.44-3.2-5.44-3.2Z"/>
  <path class="cls-1" d="M2.81,13.14c-.48,0-.87-.39-.87-.87V3.63c0-.48.39-.87.87-.87s.87.39.87.87v8.64c0,.48-.39.87-.87.87Z"/>
</svg>