<?xml version="1.0" encoding="UTF-8"?>
<svg id="Layer_1" xmlns="http://www.w3.org/2000/svg" viewBox="0 0 16 16">
  <defs>
    <style>
      .cls-1 {
        fill: #f3f3f4;
      }
    </style>
  </defs>
  <polygon class="cls-1" points="11.13 13.1 11.13 12.1 7.87 12.1 7.87 13.1 5.11 11.5 7.87 9.9 7.87 10.9 11.13 10.9 11.13 9.9 13.89 11.5 11.13 13.1"/>
  <path class="cls-1" d="M5.62,10.57l-.33-.14c-.18-.1-.29-.3-.29-.5V3.79l.55-.36.33.15,5.2,3.06.04.36c0,.2-.11.4-.28.5l-5.21,3.07ZM5.36,9.56s0,0,0,0h0ZM5.99,4.82v4.37l3.71-2.18-3.71-2.18Z"/>
</svg>