<?xml version="1.0" encoding="UTF-8"?>
<svg id="Layer_1" xmlns="http://www.w3.org/2000/svg" viewBox="0 0 16 16">
  <defs>
    <style>
      .cls-1 {
        fill: #1f1f1f;
      }

      .cls-2 {
        fill: none;
        stroke: #df923e;
        stroke-linecap: round;
        stroke-miterlimit: 10;
        stroke-width: 1.5px;
      }
    </style>
  </defs>
  <polygon class="cls-1" points="12.13 13.1 12.13 12.1 8.87 12.1 8.87 13.1 6.11 11.5 8.87 9.9 8.87 10.9 12.13 10.9 12.13 9.9 14.89 11.5 12.13 13.1"/>
  <path class="cls-1" d="M6.62,10.57l-.33-.14c-.18-.1-.29-.3-.29-.5V3.79l.55-.36.33.15,5.2,3.06.04.36c0,.2-.11.4-.28.5l-5.21,3.07ZM6.36,9.56s0,0,0,0h0ZM6.99,4.82v4.37l3.71-2.18-3.71-2.18Z"/>
  <line class="cls-2" x1="4" y1="9.6" x2="4" y2="4.3"/>
</svg>