<?xml version="1.0" encoding="UTF-8"?>
<svg id="Layer_1" xmlns="http://www.w3.org/2000/svg" viewBox="0 0 16 16">
  <defs>
    <style>
      .cls-1 {
        fill: #f3f3f4;
      }
    </style>
  </defs>
  <polygon class="cls-1" points="6.51 13.5 3.87 13.5 3.87 9.5 4.87 9.5 4.87 12.5 6.51 12.5 6.51 13.5"/>
  <polygon class="cls-1" points="13.13 9 12.13 9 12.13 4.26 9.78 4.26 9.78 3.26 13.13 3.26 13.13 9"/>
  <polygon class="cls-1" points="8.21 5.61 6.14 7.68 5.44 6.97 6.29 6.11 2.67 6.11 2.67 5.11 6.29 5.11 5.44 4.26 6.15 3.56 8.21 5.61"/>
  <polygon class="cls-1" points="13.5 12.12 9.88 12.12 10.73 12.97 10.02 13.68 7.96 11.62 10.03 9.56 10.73 10.26 9.88 11.12 13.5 11.12 13.5 12.12"/>
</svg>