<?xml version="1.0" encoding="UTF-8"?>
<svg id="Layer_1" xmlns="http://www.w3.org/2000/svg" viewBox="0 0 16 16">
  <defs>
    <style>
      .cls-1 {
        fill: #c5c5c4;
        fill-rule: evenodd;
      }
    </style>
  </defs>
  <path class="cls-1" d="M12.28,2.14c-.47-.24-1.03-.24-1.5,0-.24.12-.44.32-.68.56l-7.22,7.22c-.19.19-.33.33-.45.49-.23.32-.38.68-.44,1.07-.03.19-.03.39-.03.67v.62c0,.15,0,.35.05.51.11.33.37.6.71.71.17.06.36.05.51.05h.04s.57,0,.57,0c.28,0,.47,0,.67-.03.39-.06.75-.21,1.07-.44.16-.11.3-.25.49-.45l7.22-7.22c.24-.24.44-.44.56-.68.24-.47.24-1.03,0-1.5-.12-.24-.32-.44-.56-.68l-.35-.35c-.24-.24-.44-.44-.68-.56ZM11.28,3.12c.16-.08.34-.08.5,0,.06.03.13.09.45.41l.24.24c.32.32.38.39.41.45.08.16.08.34,0,.5-.03.06-.09.13-.41.45l-.47.47-1.64-1.64.47-.47c.32-.32.39-.38.45-.41ZM9.58,4.78l-5.9,5.9c-.23.23-.31.31-.37.39-.13.18-.21.38-.25.59-.02.1-.02.2-.02.53v.53c0,.11,0,.17,0,.21h0s0,0,0,0c.04,0,.1,0,.21,0h.53c.33,0,.44,0,.53-.02.21-.03.42-.12.59-.25.08-.06.16-.13.39-.37l5.9-5.9-1.64-1.64Z"/>
</svg>