<?xml version="1.0" encoding="UTF-8"?>
<svg id="Layer_1" xmlns="http://www.w3.org/2000/svg" viewBox="0 0 16 16">
  <defs>
    <style>
      .cls-1 {
        fill: #f3f3f4;
      }
    </style>
  </defs>
  <path class="cls-1" d="M5.54,12c.07.35.16.68.29,1h-2.97V3h-.86v-1h1.86v10h1.68Z"/>
  <path class="cls-1" d="M12.9,2v1h-.86v2.61c-.32-.07-.66-.1-1-.11v-3.5h1.86Z"/>
  <path class="cls-1" d="M6.57,2.92v4.77c-.48.63-.83,1.36-1,2.16V2.92h1Z"/>
  <path class="cls-1" d="M9.3,2.92v2.83c-.35.11-.68.26-1,.44v-3.27h1Z"/>
  <g>
    <polygon class="cls-1" points="11.47 12.26 10.51 11.3 10.51 9.5 11.51 9.5 11.51 10.89 12.18 11.56 11.47 12.26"/>
    <path class="cls-1" d="M10.95,14.5c-1.93,0-3.5-1.57-3.5-3.5s1.57-3.5,3.5-3.5,3.5,1.57,3.5,3.5-1.57,3.5-3.5,3.5ZM10.95,8.5c-1.38,0-2.5,1.12-2.5,2.5s1.12,2.5,2.5,2.5,2.5-1.12,2.5-2.5-1.12-2.5-2.5-2.5Z"/>
  </g>
</svg>