<?xml version="1.0" encoding="UTF-8"?>
<svg id="Layer_1" xmlns="http://www.w3.org/2000/svg" viewBox="0 0 16 16">
  <defs>
    <style>
      .cls-1 {
        fill: #f3f3f4;
      }
    </style>
  </defs>
  <path class="cls-1" d="M8.77,3.13l.03.31.07.7.13,1.28c.25.48.47.96.62,1.45.1.33.17.66.19,1,.02.11.02.22.02.33,0,.4-.02.79-.07,1.17H3.06c0,.06.01.11.02.16.42,2.52,2.56,4.46,5.16,4.58.08.01.17.01.26.01.08,0,.16,0,.24-.01,2.92-.12,5.26-2.54,5.26-5.49s-2.32-5.35-5.23-5.49ZM9.46,4.23c1.44.31,2.62,1.31,3.19,2.64h-1.99c-.24-.92-.68-1.8-1.2-2.64ZM4.35,10.37h2.17c.18.91.52,1.8,1,2.64-1.43-.32-2.61-1.32-3.17-2.64ZM8.52,12.74c-.46-.76-.79-1.55-.98-2.37h2.02c-.21.85-.56,1.64-1.04,2.37ZM9.53,13c.5-.81.86-1.69,1.06-2.63h2.06c-.56,1.31-1.71,2.3-3.12,2.63ZM10.76,9.37c.05-.38.07-.77.07-1.17,0-.11,0-.22-.01-.33h2.11c.05.24.07.49.07.75s-.02.51-.07.75h-2.17Z"/>
  <polygon class="cls-1" points="7.51 7.34 2 6.8 2.1 5.8 6.39 6.23 5.96 1.97 6.96 1.88 7.51 7.34"/>
</svg>