<?xml version="1.0" encoding="UTF-8"?>
<svg id="Layer_1" xmlns="http://www.w3.org/2000/svg" viewBox="0 0 16 16">
  <defs>
    <style>
      .cls-1 {
        fill: #a3a3a3;
      }
    </style>
  </defs>
  <path class="cls-1" d="M11.87,6l-2.78-2.86-.33-.14h-4.31l-.45.45v2.65c.22-.04.45-.05.68-.05.08,0,.16,0,.23.01v-2.15h3.04v2.48c0,.26.2.46.45.46h2.69v5.24h-1.15c-.03.31-.1.62-.2.91h1.8l.45-.45v-6.23s-.12-.32-.12-.32ZM8.85,5.94v-1.74l1.7,1.74h-1.7Z"/>
  <g>
    <rect class="cls-1" x="2.72" y="10.87" width="3.99" height="1"/>
    <path class="cls-1" d="M4.68,8.57c1.55,0,2.8,1.26,2.8,2.8s-1.26,2.8-2.8,2.8-2.8-1.26-2.8-2.8,1.26-2.8,2.8-2.8M4.68,7.57c-2.1,0-3.8,1.7-3.8,3.8s1.7,3.8,3.8,3.8,3.8-1.7,3.8-3.8-1.7-3.8-3.8-3.8h0Z"/>
  </g>
</svg>